<?xml version="1.0" encoding="utf-8"?>
<!-- Generator: Adobe Illustrator 23.0.3, SVG Export Plug-In . SVG Version: 6.00 Build 0)  -->
<svg version="1.1" id="Capa_1" xmlns="http://www.w3.org/2000/svg" xmlns:xlink="http://www.w3.org/1999/xlink" x="0px" y="0px"
	 viewBox="0 0 512 512" style="enable-background:new 0 0 512 512;" xml:space="preserve">
<style type="text/css">
	.st0{fill:#FFA000;}
	.st1{fill:#FFC107;}
</style>
<g>
	<path class="st0" d="M437.3,53.3H74.7c-29.4,0-53.2,23.7-53.3,53.1c0,2.4,0.2,4.8,0.5,7.1c0.8,5.8,6.1,10,11.9,9.2
		c1.4-0.2,2.8-0.7,4-1.4c4.7-2.7,10.1-4.2,15.5-4.1h75.9c13.7,0,25.9,8.8,30.3,21.7l1.8,5.8c7.3,21.7,27.7,36.4,50.6,36.4h246.6
		c5.6,0,11.1,1.5,15.9,4.3c1.6,1,3.5,1.5,5.4,1.5c5.9,0,10.7-4.8,10.7-10.7v-69.7C490.7,77.2,466.8,53.3,437.3,53.3z"/>
	<path class="st1" d="M485.4,167.2c-8.1-4.7-17.3-7.2-26.7-7.2H212.1c-13.7,0-25.9-8.8-30.3-21.7l-1.8-5.8
		c-7.3-21.7-27.7-36.4-50.6-36.4H53.3c-9.2-0.1-18.2,2.3-26.1,6.9C10.4,112.3,0,130.1,0,149.3v256c0,29.5,23.9,53.3,53.3,53.3h405.3
		c29.5,0,53.3-23.9,53.3-53.3v-192C512.1,194.3,501.9,176.7,485.4,167.2z"/>
</g>
</svg>
