<svg xmlns="http://www.w3.org/2000/svg" viewBox="0 0 27.99 32.6"><defs><style>.cls-1{fill:#fff;}</style></defs><title>Asset 3ldpi</title><g id="Layer_2" data-name="Layer 2"><g id="color"><path class="cls-1" d="M27.55,24.87a7,7,0,0,0-2.87-1.33l-5.1-1a1.15,1.15,0,0,1-.93-1.14V20.21a15.53,15.53,0,0,0,1-1.72,9.87,9.87,0,0,1,.82-1.44,7.58,7.58,0,0,0,2.34-3.71,3.56,3.56,0,0,0-.33-2.74,20.77,20.77,0,0,0-.4-4.71,5.11,5.11,0,0,0-1.21-3.77,3.61,3.61,0,0,0-2.17-.91A3.66,3.66,0,0,1,17.88,1,8.27,8.27,0,0,0,14,0c-3.07.13-6.84,2.08-8.1,5.56a13.31,13.31,0,0,0-.32,4.19l0,.84a3.75,3.75,0,0,0-.31,2.75,7.62,7.62,0,0,0,2.36,3.73,10.94,10.94,0,0,1,.82,1.43,14.47,14.47,0,0,0,1,1.71v1.17a1.15,1.15,0,0,1-.93,1.14l-5.11,1A6.84,6.84,0,0,0,.44,24.87,1.15,1.15,0,0,0,.3,26.56a18.55,18.55,0,0,0,27.39,0,1.12,1.12,0,0,0,.3-.87A1.18,1.18,0,0,0,27.55,24.87Z"/></g></g></svg>